<?xml version="1.0" standalone="no"?><svg xmlns="http://www.w3.org/2000/svg" viewBox="0 0 1440 320"><path fill="#EF233C" fill-opacity="1" d="M0,160L20,165.3C40,171,80,181,120,181.3C160,181,200,171,240,170.7C280,171,320,181,360,186.7C400,192,440,192,480,176C520,160,560,128,600,117.3C640,107,680,117,720,128C760,139,800,149,840,138.7C880,128,920,96,960,69.3C1000,43,1040,21,1080,16C1120,11,1160,21,1200,53.3C1240,85,1280,139,1320,160C1360,181,1400,171,1420,165.3L1440,160L1440,320L1420,320C1400,320,1360,320,1320,320C1280,320,1240,320,1200,320C1160,320,1120,320,1080,320C1040,320,1000,320,960,320C920,320,880,320,840,320C800,320,760,320,720,320C680,320,640,320,600,320C560,320,520,320,480,320C440,320,400,320,360,320C320,320,280,320,240,320C200,320,160,320,120,320C80,320,40,320,20,320L0,320Z"></path></svg>