<svg xmlns="http://www.w3.org/2000/svg" version="1.1" xmlns:xlink="http://www.w3.org/1999/xlink" xmlns:svgjs="http://svgjs.dev/svgjs" viewBox="0 0 800 800"><defs><linearGradient x1="50%" y1="0%" x2="50%" y2="100%" id="ccchaos-grad"><stop stop-color="hsl(0, 0%, 100%)" stop-opacity="1" offset="0%"></stop><stop stop-color="hsl(0, 0%, 100%)" stop-opacity="1" offset="100%"></stop></linearGradient></defs><g stroke-width="2" stroke="url(#ccchaos-grad)" fill="none" stroke-linecap="round"><path d="M413.76 102.69C423.96 104.75 434.34 107.68 444.88 111.34 455.43 115.19 466.13 119.54 476.9 124.25 487.63 128.82 498.37 133.56 509 138.37 519.47 142.78 529.66 147.17 539.42 151.48 548.79 155.3 557.48 159.06 565.3 162.75 575.51 167.64 588.79 177.28 591.65 182.37 592.66 187.56 591.72 199.88 592.04 207.21 593.94 212.37 597.23 218.04 602.29 224.19 609.6 230.5 618.91 237.3 630.09 244.53 642.91 251.91 656.71 259.7 670.71 267.84 684.24 276.11 696.26 284.68 705.81 293.5 712.52 302.41 715.53 311.52 714.54 320.78 710.24 330.08 702.57 339.5 692.33 348.99 681.25 358.49 669.95 368.03 659.72 377.57 652.32 387.11 648.07 396.42 647.27 405.48 650.26 414.54 656.04 423.37 663.73 431.97 672.93 440.61 681.93 449.05 689.65 457.33 695.83 465.69 699.12 473.95 699.18 482.14 696.32 490.51 690.19 498.9 681.23 507.34 670.18 516.06 657.41 524.93 643.67 533.98 629.65 543.38 615.86 553.02 602.79 562.92 590.83 573.15 580.16 583.62 570.83 594.26 563.01 605.11 556.41 616.01 550.8 626.81 546.32 637.54 542.37 647.92 538.64 657.76 535.44 667.1 532.03 675.58 528.21 682.98 524.45 689.46 520.04 694.57 514.91 698.17 509.61 700.61 503.55 701.44 496.74 700.64 489.75 698.82 482.07 695.59 473.77 691.09 465.35 686.14 456.38 680.43 446.94 674.25 437.46 668.48 427.55 662.87 417.27 657.7 406.99 653.77 396.6 650.8 386.14 648.87 375.69 648.42 365.16 648.94 354.58 650.29 344 652.79 333.36 655.72 322.69 658.83 312.04 662.43 301.37 665.71 290.75 668.43 280.21 670.94 269.77 672.49 259.55 672.94 249.53 672.72 239.83 671.21 230.58 668.42 221.71 664.79 213.41 659.91 205.81 653.87 198.7 647.1 192.35 639.34 186.82 630.75 181.74 621.65 177.4 611.94 173.76 601.76 170.3 591.33 167.3 580.62 164.64 569.74 161.73 558.81 158.87 547.82 155.93 536.87 152.39 525.97 148.61 515.15 144.58 504.44 139.92 493.83 135.12 483.33 130.33 472.97 125.3 462.69 120.63 452.52 116.55 442.47 112.83 432.46 110.05 422.55 108.37 412.73 107.42 402.94 107.66 393.21 109.05 383.58 110.97 373.95 113.69 364.63 116.96 355.63 120.1 346.63 123.38 337.95 126.61 329.6 129.21 321.25 131.58 313.25 133.72 305.6 135.21 297.96 136.63 290.67 138.1 283.76 139.34 276.83 140.98 270.25 143.17 264.03 145.66 257.75 148.97 251.78 153.19 246.12 158 240.32 163.77 234.76 170.43 229.41 177.66 223.82 185.63 218.37 194.22 213 203.11 207.32 212.38 201.65 221.9 195.98 231.41 189.93 241 183.83 250.57 177.7 259.93 171.2 269.22 164.69 278.41 158.22 287.31 151.51 296.15 144.93 304.96 138.6 313.51 132.24 322.11 126.29 330.81 120.87 339.33 115.69 348.03 111.23 356.95 107.6 365.77 104.46 374.89 102.29 384.35 101.15 393.76 100.61 403.55 101.12 413.75 102.69" stroke-dasharray="10 6" transform="rotate(0, 400, 400)" opacity="0.69"></path><path d="M419.23 113.36C429.15 115.4 439.16 118.26 449.2 121.83 459.24 125.59 469.28 129.85 479.26 134.48 489.18 138.99 498.94 143.69 508.42 148.49 517.71 152.94 526.57 157.38 534.86 161.77 542.75 165.7 549.88 169.57 556.1 173.38 564.06 178.45 573.76 188.31 575.67 193.37 576.59 198.42 577.91 210.08 580.37 216.89 583.86 221.63 588.8 226.84 595.43 232.49 604.02 238.25 614.29 244.47 626.01 251.11 638.89 257.87 652.28 265.03 665.44 272.54 677.79 280.15 688.42 288.09 696.52 296.29 701.88 304.57 703.78 313.08 702.04 321.77 697.38 330.5 689.75 339.38 679.89 348.37 669.4 357.38 658.77 366.47 649.13 375.61 642.06 384.76 637.83 393.74 636.7 402.54 639.04 411.35 643.98 419.99 650.79 428.48 659.2 437.01 667.66 445.41 675.22 453.72 681.68 462.11 685.73 470.47 686.96 478.82 685.64 487.32 681.28 495.9 674.16 504.56 664.92 513.46 653.75 522.52 641.28 531.76 628.15 541.28 614.79 551.01 601.71 560.93 589.29 571.1 577.78 581.42 567.35 591.82 558.16 602.32 550.09 612.76 543.02 623 537.06 633.07 531.79 642.71 526.96 651.73 522.79 660.21 518.69 667.8 514.45 674.31 508.23 682.1 493.37 689.18 484.37 688.25 478.05 686.25 471.08 682.99 463.49 678.6 455.82 673.86 447.58 668.45 438.8 662.62 429.99 657.2 420.7 651.92 410.96 647.03 401.22 643.27 391.29 640.36 381.22 638.38 371.18 637.75 361.01 637.99 350.76 638.99 340.54 641.08 330.26 643.59 319.97 646.31 309.74 649.54 299.54 652.55 289.44 655.11 279.48 657.57 269.71 659.23 260.22 659.94 251 660.11 242.17 659.15 233.84 657.03 225.92 654.18 218.6 650.16 211.97 645.06 205.8 639.26 200.35 632.5 195.63 624.9 191.27 616.79 187.53 608.01 184.36 598.71 181.24 589.11 178.44 579.16 175.87 568.96 172.94 558.64 169.96 548.2 166.85 537.72 163.1 527.24 159.1 516.78 154.86 506.39 150.04 496.05 145.12 485.8 140.24 475.67 135.21 465.6 130.57 455.63 126.55 445.8 122.93 436 120.26 426.31 118.69 416.74 117.85 407.18 118.18 397.73 119.64 388.41 121.63 379.08 124.41 370.08 127.73 361.42 130.96 352.75 134.33 344.42 137.65 336.43 140.38 328.43 142.87 320.76 145.11 313.45 146.69 306.12 148.14 299.13 149.57 292.48 150.68 285.8 152.1 279.43 153.96 273.38 155.99 267.24 158.77 261.37 162.35 255.75 166.45 249.98 171.47 244.39 177.37 238.97 183.85 233.31 191.11 227.74 199.05 222.24 207.38 216.42 216.2 210.61 225.37 204.78 234.66 198.61 244.13 192.4 253.69 186.18 263.15 179.64 272.6 173.12 282 166.67 291.2 160.03 300.34 153.57 309.44 147.38 318.33 141.21 327.22 135.47 336.15 130.26 344.93 125.33 353.81 121.09 362.84 117.67 371.77 114.73 380.92 112.72 390.3 111.7 399.65 111.25 409.29 111.8 419.22 113.36" stroke-dasharray="11 6" transform="rotate(4.04, 400, 400)" opacity="0.84"></path><path d="M422.14 124.04C431.73 126.03 441.27 128.83 450.72 132.31 460.16 135.97 469.46 140.13 478.56 144.66 487.57 149.11 496.28 153.76 504.6 158.53 512.7 162.99 520.27 167.47 527.18 171.91 533.74 175.94 539.52 179.92 544.41 183.85 550.65 189.11 558.14 199.23 559.84 204.33 561.33 209.32 565.78 220.51 570.49 226.92 575.52 231.32 581.93 236.14 589.85 241.36 599.43 246.65 610.32 252.36 622.25 258.47 634.9 264.67 647.62 271.26 659.77 278.19 670.86 285.21 680.08 292.55 686.78 300.18 690.89 307.86 691.79 315.8 689.4 323.95 684.47 332.13 676.94 340.5 667.49 349.02 657.59 357.55 647.61 366.22 638.54 374.99 631.8 383.76 627.6 392.43 626.18 400.99 627.93 409.55 632.08 418.03 638.04 426.4 645.63 434.82 653.48 443.19 660.77 451.5 667.32 459.91 671.92 468.33 674.12 476.78 674.14 485.38 671.39 494.07 666.03 502.86 658.6 511.86 649.13 521 638.15 530.31 626.21 539.83 613.66 549.51 600.99 559.31 588.57 569.29 576.68 579.33 565.56 589.35 555.36 599.39 546.11 609.27 537.77 618.86 530.44 628.21 523.85 637.06 517.83 645.23 512.53 652.85 507.5 659.57 502.55 665.21 495.58 671.82 480.44 677.16 471.8 675.77 465.85 673.64 459.34 670.38 452.27 666.13 445.15 661.61 437.49 656.49 429.3 651.02 421.08 645.94 412.37 640.98 403.18 636.35 394 632.77 384.6 629.93 375.03 627.9 365.5 627.11 355.82 627.1 346.07 627.78 336.37 629.48 326.63 631.58 316.9 633.91 307.29 636.77 297.75 639.48 288.37 641.85 279.18 644.21 270.23 645.9 261.63 646.79 253.33 647.27 245.47 646.74 238.14 645.19 231.2 643.02 224.85 639.78 219.18 635.52 213.88 630.65 209.23 624.83 205.23 618.19 201.45 611.05 198.17 603.22 195.34 594.83 192.42 586.11 189.72 576.98 187.11 567.53 184.07 557.93 180.92 548.13 177.57 538.22 173.6 528.26 169.37 518.27 164.92 508.3 159.95 498.34 154.93 488.44 150.01 478.63 145 468.85 140.43 459.16 136.5 449.6 133 440.06 130.47 430.63 129.01 421.34 128.29 412.05 128.7 402.89 130.23 393.86 132.28 384.83 135.1 376.14 138.47 367.79 141.76 359.43 145.21 351.4 148.62 343.72 151.47 336.01 154.1 328.63 156.46 321.59 158.15 314.51 159.67 307.74 161.11 301.29 162.17 294.78 163.43 288.56 165.02 282.61 166.69 276.55 168.98 270.71 171.98 265.09 175.41 259.3 179.69 253.66 184.8 248.14 190.47 242.38 196.95 236.69 204.13 231.04 211.77 225.1 219.96 219.15 228.6 213.2 237.47 206.93 246.62 200.65 255.94 194.37 265.29 187.83 274.71 181.33 284.14 174.95 293.46 168.42 302.76 162.11 312.02 156.09 321.14 150.13 330.24 144.62 339.33 139.65 348.31 134.96 357.33 130.96 366.42 127.76 375.44 125.01 384.58 123.16 393.85 122.26 403.11 121.89 412.53 122.48 422.12 124.03" stroke-dasharray="8 1" transform="rotate(8.08, 400, 400)" opacity="0.10"></path><path d="M422.1 134.71C431.29 136.67 440.31 139.39 449.12 142.76 457.9 146.33 466.42 150.38 474.61 154.8 482.72 159.16 490.42 163.75 497.62 168.47 504.64 172.93 511.06 177.42 516.81 181.91 524.65 188.06 536.07 199.58 539.73 205.03 542.69 210.02 547.44 220.2 550.46 225.61 553.57 229.17 557.49 233.03 562.44 237.2 568.83 241.35 576.47 245.85 585.4 250.72 595.62 255.62 606.8 260.9 618.62 266.56 630.76 272.27 642.63 278.34 653.63 284.76 663.4 291.24 671.23 298.04 676.59 305.14 679.55 312.28 679.57 319.69 676.63 327.33 671.51 335 664.14 342.89 655.13 350.97 645.81 359.05 636.47 367.31 627.95 375.72 621.54 384.14 617.39 392.51 615.72 400.83 616.92 409.17 620.33 417.46 625.46 425.72 632.23 434.02 639.43 442.32 646.32 450.62 652.83 459 657.77 467.43 660.72 475.92 661.87 484.53 660.55 493.25 656.82 502.08 651.14 511.06 643.42 520.18 634.04 529.42 623.53 538.82 612.1 548.32 600.22 557.89 588.22 567.54 576.4 577.18 565.01 586.72 554.23 596.19 544.16 605.43 534.86 614.31 526.39 622.88 518.63 630.91 511.48 638.23 505.02 644.99 498.97 650.86 493.15 655.69 485.09 661.21 468.85 664.98 460.16 663.21 454.29 660.99 448 657.77 441.25 653.68 434.48 649.38 427.25 644.57 419.53 639.43 411.8 634.69 403.61 630.04 394.99 625.68 386.36 622.26 377.52 619.49 368.54 617.44 359.58 616.51 350.51 616.28 341.39 616.66 332.33 617.98 323.28 619.7 314.28 621.64 305.42 624.13 296.69 626.53 288.17 628.67 279.87 630.88 271.86 632.54 264.24 633.53 256.9 634.21 250.04 634.04 243.71 632.95 237.71 631.36 232.29 628.8 227.47 625.3 222.94 621.26 218.97 616.33 215.53 610.6 212.19 604.4 209.23 597.5 206.58 590.02 203.75 582.2 201 573.92 198.26 565.29 195.04 556.45 191.65 547.37 188.04 538.12 183.83 528.78 179.38 519.35 174.74 509.88 169.65 500.4 164.56 490.93 159.63 481.52 154.68 472.11 150.21 462.78 146.4 453.55 143.06 444.33 140.67 435.21 139.35 426.22 138.74 417.24 139.24 408.37 140.82 399.65 142.92 390.92 145.77 382.52 149.15 374.46 152.5 366.38 156.01 358.63 159.5 351.2 162.48 343.75 165.24 336.61 167.74 329.77 169.58 322.89 171.21 316.3 172.71 309.99 173.77 303.6 174.95 297.46 176.35 291.56 177.73 285.53 179.61 279.7 182.1 274.03 184.91 268.19 188.48 262.47 192.84 256.84 197.69 250.98 203.33 245.17 209.69 239.39 216.51 233.33 223.96 227.28 231.91 221.22 240.17 214.9 248.79 208.57 257.68 202.28 266.7 195.77 275.87 189.35 285.12 183.06 294.36 176.69 303.62 170.55 312.86 164.74 322.04 159.01 331.2 153.74 340.32 149.02 349.38 144.59 358.44 140.84 367.5 137.85 376.52 135.31 385.57 133.61 394.67 132.83 403.75 132.54 412.9 133.17 422.09 134.71" stroke-dasharray="4 3" transform="rotate(12.12, 400, 400)" opacity="0.61"></path><path d="M419.13 145.38C427.86 147.3 436.32 149.94 444.46 153.2 452.58 156.66 460.33 160.59 467.68 164.89 474.95 169.16 481.74 173.66 488 178.32 494.11 182.75 499.62 187.25 504.49 191.76 511.19 198.01 521.2 209.84 524.78 215.45 528.2 220.62 535.36 230.97 540.21 236.36 544.62 239.87 549.89 243.62 556.15 247.64 563.65 251.59 572.23 255.86 581.82 260.45 592.35 265.04 603.51 269.97 614.93 275.24 626.33 280.53 637.18 286.18 646.94 292.15 655.37 298.15 661.85 304.47 665.97 311.1 667.88 317.74 667.14 324.67 663.77 331.86 658.54 339.06 651.37 346.5 642.8 354.17 634.07 361.83 625.34 369.71 617.36 377.78 611.28 385.86 607.19 393.95 605.31 402.03 606.02 410.12 608.74 418.23 613.08 426.35 619.03 434.51 625.53 442.7 631.95 450.93 638.26 459.23 643.37 467.61 646.86 476.06 648.91 484.61 648.82 493.27 646.55 502.02 642.52 510.89 636.5 519.86 628.78 528.91 619.83 538.07 609.76 547.27 598.96 556.46 587.77 565.68 576.42 574.82 565.2 583.78 554.28 592.61 543.81 601.14 533.91 609.25 524.62 617.03 515.95 624.22 507.85 630.7 500.37 636.63 493.34 641.68 486.65 645.75 480.4 649.12 474.3 651.4 468.26 652.56 462.46 652.99 456.55 652.33 450.45 650.59 444.45 648.33 438.16 645.18 431.55 641.25 424.95 637.19 417.99 632.68 410.64 627.88 403.29 623.46 395.56 619.11 387.46 615.01 379.35 611.75 371.09 609.07 362.73 607.01 354.4 605.95 346 605.51 337.6 605.62 329.27 606.6 320.99 607.95 312.83 609.52 304.8 611.64 296.96 613.71 289.39 615.59 282.01 617.62 274.97 619.19 268.34 620.21 259 621.06 243.2 618.28 236.8 614.46 232.89 611.16 229.43 607.03 226.39 602.14 223.33 596.83 220.54 590.82 217.94 584.23 215.05 577.31 212.17 569.9 209.22 562.09 205.76 554.07 202.1 545.75 198.21 537.21 193.76 528.56 189.1 519.76 184.3 510.88 179.13 501.95 174.02 492.99 169.12 484.04 164.26 475.09 159.92 466.17 156.27 457.32 153.1 448.49 150.87 439.72 149.69 431.07 149.2 422.42 149.78 413.87 151.41 405.45 153.54 397.03 156.4 388.92 159.8 381.13 163.17 373.32 166.73 365.82 170.29 358.61 173.39 351.38 176.28 344.43 178.93 337.76 180.93 331.04 182.71 324.57 184.32 318.35 185.44 312.04 186.6 305.95 187.9 300.05 189.07 294.03 190.64 288.17 192.69 282.44 194.96 276.54 197.9 270.73 201.53 264.99 205.59 259.04 210.4 253.12 215.9 247.23 221.86 241.09 228.45 234.96 235.6 228.85 243.1 222.5 251.03 216.18 259.3 209.92 267.78 203.49 276.48 197.18 285.34 191.03 294.27 184.84 303.27 178.92 312.3 173.33 321.33 167.87 330.36 162.86 339.36 158.4 348.33 154.23 357.28 150.73 366.18 147.96 375.07 145.62 383.94 144.08 392.76 143.41 401.59 143.2 410.38 143.86 419.12 145.38" stroke-dasharray="3 5" transform="rotate(16.16, 400, 400)" opacity="0.34"></path><path d="M413.61 156.06C421.84 157.92 429.73 160.48 437.23 163.63 444.71 166.97 451.78 170.77 458.39 174.94 464.94 179.1 470.99 183.51 476.52 188.08 481.95 192.47 486.82 196.95 491.13 201.45 497.21 207.78 506.93 219.87 510.98 225.64 515.29 230.98 525.38 241.58 532.07 247 537.68 250.5 544.11 254.2 551.43 258.12 559.77 261.95 568.96 266.06 578.87 270.44 589.39 274.78 600.22 279.43 610.99 284.4 621.48 289.35 631.18 294.63 639.66 300.22 646.77 305.82 651.96 311.73 654.93 317.94 655.91 324.15 654.51 330.65 650.81 337.42 645.54 344.2 638.61 351.23 630.52 358.51 622.36 365.79 614.23 373.31 606.77 381.05 601.02 388.8 597.01 396.6 594.96 404.44 595.22 412.28 597.3 420.19 600.88 428.13 606.03 436.11 611.81 444.15 617.69 452.25 623.68 460.41 628.79 468.66 632.63 476.98 635.36 485.38 636.27 493.87 635.27 502.44 632.73 511.09 628.32 519.8 622.24 528.55 614.91 537.35 606.34 546.14 596.84 554.87 586.75 563.55 576.24 572.09 565.57 580.4 554.93 588.53 544.49 596.31 534.39 603.63 524.68 610.6 515.43 616.97 506.67 622.62 498.39 627.75 490.56 632.04 483.09 635.4 476.04 638.13 469.22 639.87 462.58 640.57 456.19 640.67 449.82 639.77 443.42 637.92 437.14 635.65 430.72 632.59 424.11 628.86 417.53 625.04 410.72 620.82 403.64 616.35 396.57 612.24 389.21 608.19 381.59 604.33 373.97 601.25 366.27 598.64 358.54 596.58 350.83 595.43 343.13 594.8 335.49 594.66 327.91 595.33 320.45 596.32 313.16 597.54 305.99 599.29 299.05 601.03 292.41 602.64 282.89 605.16 266.09 607.86 258.96 607.55 252.55 606.05 242 598.68 237.63 592.85 234.7 588.35 231.92 583.19 229.23 577.44 226.2 571.39 223.1 564.83 219.87 557.85 216.13 550.66 212.19 543.12 208.02 535.33 203.35 527.41 198.52 519.29 193.6 511.04 188.39 502.73 183.3 494.34 178.48 485.92 173.76 477.48 169.58 469.03 166.11 460.62 163.14 452.21 161.08 443.84 160.04 435.55 159.67 427.27 160.34 419.07 162 410.96 164.15 402.86 167.01 395.04 170.39 387.5 173.78 379.95 177.37 372.68 180.99 365.67 184.18 358.64 187.21 351.85 190.01 345.32 192.19 338.72 194.13 332.35 195.88 326.19 197.13 319.94 198.34 313.87 199.6 307.96 200.66 301.93 202.01 296.02 203.73 290.23 205.56 284.27 207.95 278.38 210.94 272.55 214.27 266.52 218.27 260.52 222.94 254.55 228.01 248.37 233.71 242.21 239.98 236.08 246.62 229.76 253.73 223.49 261.23 217.31 268.99 211.01 277.04 204.84 285.31 198.88 293.71 192.91 302.25 187.22 310.86 181.89 319.54 176.7 328.24 171.97 336.92 167.79 345.63 163.89 354.3 160.64 362.9 158.09 371.52 155.94 380.07 154.57 388.53 154 397 153.87 405.37 154.56 413.6 156.05" stroke-dasharray="8 10" transform="rotate(20.200000000000003, 400, 400)" opacity="0.98"></path><path d="M406.28 166.73C413.99 168.55 421.32 171.01 428.25 174.04 435.15 177.26 441.63 180.93 447.66 184.96 453.65 188.99 459.17 193.28 464.21 197.75 469.2 202.08 473.73 206.51 477.8 210.99 483.72 217.35 494.1 229.64 499 235.56 504.49 241.07 517.65 251.93 526.02 257.43 532.63 260.96 539.98 264.65 548.05 268.53 556.9 272.29 566.36 276.28 576.26 280.52 586.48 284.69 596.71 289.14 606.64 293.85 616.06 298.55 624.56 303.53 631.74 308.81 637.56 314.07 641.55 319.64 643.48 325.48 643.66 331.32 641.72 337.45 637.78 343.85 632.54 350.25 625.9 356.91 618.28 363.83 610.68 370.75 603.13 377.93 596.18 385.36 590.75 392.78 586.85 400.29 584.65 407.87 584.51 415.45 586.01 423.12 588.89 430.85 593.26 438.6 598.3 446.44 603.58 454.35 609.16 462.3 614.12 470.34 618.12 478.45 621.32 486.6 623 494.84 623.06 503.12 621.82 511.44 618.87 519.79 614.34 528.13 608.62 536.47 601.6 544.76 593.55 552.92 584.78 561 575.37 568.88 565.58 576.48 555.6 583.87 545.58 590.88 535.67 597.39 525.95 603.56 516.51 609.12 507.42 613.98 498.67 618.36 490.29 621.95 482.27 624.66 474.58 626.82 467.17 628.08 459.99 628.4 453.05 628.21 446.23 627.13 439.49 625.22 432.88 622.96 426.25 620.02 419.57 616.49 412.93 612.92 406.18 609 399.29 604.85 392.41 601.04 385.37 597.27 378.17 593.66 370.98 590.74 363.8 588.23 356.67 586.18 349.56 584.94 342.53 584.15 335.63 583.79 328.79 584.17 322.11 584.84 315.65 585.72 306.24 587.82 289.13 592.03 281.59 593.56 268.74 594.04 253.25 587.63 249.02 582.79 246.06 579.01 243.17 574.62 240.29 569.66 237.02 564.42 233.64 558.68 230.11 552.51 226.08 546.13 221.86 539.38 217.44 532.34 212.59 525.17 207.63 517.76 202.64 510.18 197.45 502.53 192.43 494.75 187.73 486.9 183.18 479.01 179.21 471.08 175.94 463.15 173.17 455.2 171.3 447.27 170.41 439.38 170.16 431.49 170.9 423.65 172.59 415.87 174.75 408.1 177.59 400.57 180.95 393.29 184.33 386 187.93 378.94 191.58 372.12 194.87 365.27 198.01 358.64 200.95 352.21 203.32 345.74 205.45 339.44 207.37 333.32 208.77 327.12 210.09 321.06 211.4 315.14 212.43 309.1 213.65 303.16 215.14 297.3 216.65 291.3 218.6 285.36 221.05 279.46 223.73 273.4 227.02 267.36 230.89 261.36 235.11 255.18 239.93 249.03 245.31 242.93 251.03 236.69 257.24 230.53 263.88 224.47 270.8 218.33 278.05 212.37 285.57 206.62 293.28 200.9 301.17 195.48 309.18 190.42 317.3 185.53 325.49 181.1 333.68 177.19 341.94 173.57 350.17 170.57 358.34 168.24 366.54 166.29 374.66 165.06 382.66 164.6 390.68 164.55 398.56 165.25 406.27 166.73" stroke-dasharray="10 6" transform="rotate(24.24, 400, 400)" opacity="0.36"></path><path d="M398.12 177.4C405.3 179.16 412.12 181.53 418.55 184.44 424.96 187.53 430.98 191.05 436.59 194.93 442.18 198.83 447.37 202.98 452.16 207.34 456.96 211.58 461.39 215.94 465.49 220.37 471.65 226.73 483.34 239.15 489.33 245.18 493.76 248.95 498.43 252.74 503.45 256.56 509.07 260.15 515.19 263.82 521.87 267.58 529.24 271.16 537.19 274.88 545.7 278.75 554.73 282.49 564.13 286.42 573.72 290.56 583.37 294.62 592.8 298.92 601.72 303.45 609.99 307.95 617.24 312.7 623.15 317.72 629.2 325.36 629.96 341.96 624.69 350.93 619.54 356.99 613.22 363.32 606.09 369.91 599.04 376.49 592.05 383.34 585.59 390.46 580.48 397.57 576.69 404.78 574.38 412.07 573.91 419.37 574.87 426.77 577.09 434.23 580.71 441.72 585.03 449.3 589.68 456.94 594.75 464.62 599.44 472.37 603.43 480.17 606.89 488.01 609.14 495.89 610.03 503.78 609.86 511.69 608.19 519.58 605.07 527.42 600.87 535.23 595.39 542.93 588.83 550.46 581.49 557.88 573.38 565.06 564.72 571.92 555.71 578.55 546.44 584.77 537.09 590.5 527.73 595.88 518.48 600.68 509.43 604.8 500.57 608.48 491.97 611.42 483.67 613.55 475.6 615.21 467.8 616.05 460.25 616.06 452.89 615.63 445.72 614.43 438.69 612.49 431.8 610.28 424.97 607.48 418.19 604.16 411.48 600.84 404.75 597.2 398 593.37 391.27 589.85 384.49 586.36 377.66 582.99 370.83 580.23 364.11 577.81 357.53 575.79 350.96 574.48 344.55 573.56 338.33 573 329.15 573.3 312.13 575.64 304.41 577.22 297.13 579.04 284.42 581.31 278.96 581.36 269.21 578.35 255.66 567.03 250.95 560.93 247.4 556.44 243.71 551.46 239.86 546.05 235.56 540.45 231.08 534.47 226.46 528.17 221.47 521.74 216.44 515.05 211.44 508.15 206.32 501.17 201.42 494.03 196.88 486.77 192.55 479.47 188.8 472.09 185.76 464.66 183.22 457.22 181.54 449.75 180.8 442.28 180.67 434.81 181.47 427.35 183.18 419.92 185.33 412.49 188.15 405.26 191.46 398.24 194.82 391.21 198.4 384.38 202.08 377.74 205.43 371.07 208.68 364.59 211.75 358.27 214.29 351.91 216.62 345.69 218.73 339.62 220.33 333.47 221.8 327.43 223.22 321.5 224.31 315.47 225.49 309.52 226.86 303.63 228.15 297.62 229.78 291.65 231.81 285.73 233.97 279.67 236.64 273.64 239.82 267.65 243.27 261.53 247.26 255.45 251.78 249.44 256.59 243.33 261.89 237.31 267.63 231.42 273.63 225.51 280.01 219.77 286.68 214.27 293.56 208.84 300.67 203.71 307.94 198.95 315.35 194.37 322.87 190.23 330.44 186.62 338.08 183.28 345.74 180.53 353.35 178.41 361.01 176.66 368.6 175.58 376.07 175.22 383.57 175.23 390.93 175.96 398.11 177.4" stroke-dasharray="0 7" transform="rotate(28.28, 400, 400)" opacity="0.81"></path><path d="M390.21 188.07C396.88 189.78 403.24 192.05 409.26 194.83 415.27 197.78 420.96 201.15 426.31 204.86 431.66 208.61 436.7 212.62 441.44 216.84 446.23 220.97 450.77 225.24 455.11 229.6 459.57 233.79 463.93 238.03 468.24 242.3 472.8 246.34 477.44 250.41 482.25 254.49 487.45 258.33 492.96 262.21 498.83 266.11 505.21 269.8 512.05 273.55 519.35 277.37 527.16 281.02 535.4 284.78 544 288.66 552.9 292.41 561.95 296.32 570.96 300.4 579.83 304.39 588.29 308.59 596.1 313 603.18 317.34 609.19 321.93 613.88 326.74 618.31 334.04 617.06 349.87 611.56 358.4 606.56 364.17 600.58 370.19 593.94 376.47 587.43 382.75 580.99 389.28 575 396.08 570.21 402.87 566.55 409.77 564.16 416.76 563.39 423.75 563.88 430.84 565.5 438 568.41 445.18 572.01 452.43 576.01 459.75 580.52 467.08 584.84 474.47 588.67 481.89 592.21 489.32 594.8 496.77 596.3 504.19 596.98 511.61 596.37 518.97 594.49 526.24 591.66 533.45 587.62 540.51 582.52 547.36 576.64 554.08 569.93 560.53 562.55 566.63 554.71 572.51 546.46 577.97 537.97 582.93 529.31 587.57 520.6 591.64 511.93 595.07 503.32 598.12 494.84 600.48 486.56 602.11 478.42 603.33 470.5 603.82 462.8 603.57 455.24 602.96 447.88 601.68 440.7 599.75 433.62 597.62 426.68 594.97 419.86 591.87 413.09 588.8 406.4 585.45 399.78 581.92 393.18 578.68 386.62 575.45 380.11 572.31 373.6 569.72 367.29 567.4 361.18 565.41 352.13 563.53 335.21 562.21 327.42 562.54 319.95 563.65 306.57 566.21 300.68 567.24 290.07 567.88 275.81 563.97 271.23 560.65 266.2 556.5 255.19 545.36 249.04 538.5 244.5 533.63 239.83 528.37 235.05 522.79 230 517.08 224.96 511.09 220.01 504.86 215.01 498.55 210.29 492.05 205.96 485.39 201.87 478.7 198.38 471.88 195.58 464.97 193.27 458.05 191.8 451.06 191.2 444.04 191.19 437.01 192.05 429.95 193.77 422.88 195.91 415.81 198.67 408.89 201.92 402.14 205.24 395.39 208.8 388.78 212.46 382.33 215.86 375.86 219.19 369.53 222.37 363.33 225.09 357.09 227.6 350.97 229.91 344.95 231.73 338.88 233.4 332.89 234.97 326.98 236.18 320.99 237.42 315.05 238.77 309.17 239.96 303.19 241.39 297.25 243.12 291.36 244.9 285.35 247.07 279.39 249.68 273.47 252.47 267.45 255.74 261.5 259.47 255.63 263.44 249.7 267.88 243.88 272.74 238.21 277.83 232.55 283.3 227.09 289.09 221.87 295.07 216.74 301.33 211.93 307.79 207.49 314.38 203.23 321.13 199.4 327.97 196.08 334.9 193.02 341.88 190.52 348.86 188.62 355.88 187.05 362.87 186.12 369.77 185.85 376.7 185.93 383.52 186.67 390.2 188.07" stroke-dasharray="8 7" transform="rotate(32.32, 400, 400)" opacity="0.55"></path><path d="M383.59 198.75C389.8 200.38 395.75 202.56 401.45 205.2 407.16 208.01 412.61 211.22 417.83 214.76 423.06 218.35 428.08 222.2 432.92 226.26 437.82 230.26 442.6 234.42 447.29 238.67 452.12 242.8 456.95 246.99 461.84 251.22 466.97 255.28 472.27 259.36 477.77 263.46 483.63 267.37 489.79 271.3 496.28 275.26 503.18 279.03 510.44 282.85 518.05 286.73 525.99 290.45 534.2 294.25 542.58 298.16 551.06 301.94 559.5 305.85 567.72 309.9 575.65 313.86 583.04 318 589.68 322.31 597.97 328.78 606.92 342.7 607 350.18 605.46 355.22 602.56 360.5 598.41 366.01 593.61 371.51 587.99 377.25 581.84 383.23 575.85 389.21 569.94 395.44 564.41 401.91 559.93 408.38 556.41 414.96 553.98 421.61 552.96 428.27 553.03 435.02 554.1 441.83 556.35 448.64 559.26 455.53 562.6 462.45 566.51 469.38 570.37 476.34 573.93 483.31 577.39 490.27 580.13 497.22 582.02 504.11 583.32 510.97 583.55 517.75 582.68 524.39 581.03 530.96 578.29 537.35 574.54 543.5 570.08 549.51 564.76 555.22 558.72 560.58 552.19 565.72 545.13 570.43 537.7 574.67 530.01 578.61 522.11 582.02 514.12 584.83 506.07 587.3 498.04 589.15 490.09 590.35 482.19 591.2 474.43 591.4 466.83 590.95 459.32 590.22 451.98 588.89 444.82 587.01 437.73 584.98 430.8 582.5 424.03 579.62 417.3 576.8 410.7 573.73 404.23 570.49 397.78 567.53 391.43 564.55 385.21 561.64 378.98 559.2 373.01 556.99 367.29 555.05 358.84 553.09 343.24 551.25 336.13 551.18 329.29 551.84 316.99 553.58 311.48 554.3 301.18 554.76 286.51 551.55 281.54 548.79 276.08 545.32 264.16 535.85 257.62 529.94 252.9 525.72 248.09 521.13 243.24 516.21 238.19 511.18 233.21 505.85 228.37 500.27 223.56 494.62 219.06 488.74 214.98 482.69 211.17 476.59 207.95 470.34 205.41 463.96 203.35 457.57 202.08 451.07 201.63 444.5 201.73 437.93 202.64 431.28 204.36 424.59 206.47 417.9 209.17 411.31 212.34 404.85 215.6 398.38 219.1 392.02 222.74 385.78 226.16 379.52 229.54 373.36 232.82 367.3 235.68 361.21 238.37 355.2 240.88 349.28 242.92 343.31 244.81 337.4 246.58 331.55 247.97 325.63 249.34 319.77 250.75 313.95 251.95 308.05 253.3 302.19 254.86 296.38 256.38 290.48 258.22 284.63 260.4 278.85 262.66 273 265.34 267.22 268.41 261.55 271.65 255.85 275.31 250.28 279.37 244.88 283.6 239.5 288.21 234.34 293.15 229.45 298.25 224.65 303.63 220.17 309.26 216.05 315.01 212.12 320.94 208.61 327.02 205.58 333.18 202.8 339.43 200.55 345.73 198.86 352.07 197.47 358.42 196.67 364.75 196.5 371.09 196.63 377.38 197.38 383.58 198.75" stroke-dasharray="4 9" transform="rotate(36.36, 400, 400)" opacity="0.75"></path><path d="M379.16 209.42C384.93 210.99 390.55 213.05 396 215.56 401.46 218.22 406.77 221.26 411.93 224.62 422.35 231.48 432.43 239.26 442.39 247.6 452.94 255.52 463.94 263.74 475.69 272.1 488.57 279.77 502.56 287.61 517.5 295.6 533.16 303 548.94 310.76 563.77 318.92 577.05 326.72 587.33 335.15 593.34 344.24 595.53 353.16 592.72 362.89 585.25 373.45 580.68 378.71 575.45 384.18 569.79 389.88 564.31 395.57 558.91 401.49 553.82 407.64 549.65 413.78 546.28 420.01 543.84 426.31 542.61 432.61 542.32 438.98 542.9 445.4 547.14 458.24 553.16 471.25 559.32 484.18 565.67 497.04 569.42 509.67 569.81 521.74 567.76 533.44 561.97 544.24 553.04 553.72 542.15 562.37 529.25 569.29 515.25 574.11 500.67 577.77 485.88 579.17 471.39 578.24 457 576.43 443.11 572.72 429.87 567.42 423.3 564.84 416.87 562.05 410.6 559.09 404.35 556.39 398.23 553.66 392.27 550.97 383.47 547.64 367.24 542.69 359.8 541.1 350.02 540.51 341.28 540.43 333.56 540.53 325.63 541.66 318.51 542.23 312.02 541.87 304.91 541.59 297.99 539.85 291.03 536.56 282.93 532.82 274.45 527.41 265.58 520.47 255.73 513.07 245.88 504.3 236.57 494.42 227.58 484.28 220.24 473.25 215.27 461.57 213.46 455.71 212.38 449.71 212.09 443.6 212.28 437.48 213.24 431.26 214.95 424.96 217.02 418.66 219.65 412.42 222.73 406.26 225.9 400.1 229.33 394.01 232.91 387.99 239.47 375.93 245.82 364.11 251.59 352.57 255.69 340.87 259.29 329.32 262.66 317.98 265.04 306.41 267.97 294.98 271.78 283.84 275.64 272.56 280.89 261.67 287.52 251.45 294.66 241.42 303.15 232.37 312.71 224.66 322.68 217.66 333.44 212.37 344.66 209.13 353.19 207.58 370.49 207.72 379.15 209.42" stroke-dasharray="10 10" transform="rotate(40.400000000000006, 400, 400)" opacity="0.53"></path><path d="M377.5 220.09C388.28 223.28 398.8 228.2 409.06 234.46 419.46 240.96 429.86 248.38 440.43 256.39 451.52 264.09 463.19 272.15 475.58 280.39 488.76 288.07 502.74 295.93 517.22 303.94 531.86 311.43 546.08 319.22 558.91 327.35 569.98 335.13 578.03 343.43 582.11 352.3 582.93 360.98 579.45 370.37 572.09 380.47 563.33 390.5 553.16 401.34 543.23 412.95 536.41 424.56 532.58 436.44 531.89 448.41 534.94 460.39 539.71 472.42 544.92 484.27 550.74 496.01 554.71 507.41 556.05 518.16 555.62 528.52 551.95 537.94 545.39 546.04 537.05 553.4 526.55 559.12 514.67 562.93 502.02 565.78 488.77 566.64 475.47 565.44 462.09 563.61 448.96 560.12 436.35 555.27 423.8 550.71 411.76 545.58 400.36 540.29 388.96 536.45 378.65 533.19 369.38 530.62 360.02 529.67 351.6 529.12 344.03 528.74 336.16 529.34 328.9 529.5 322.07 528.93 314.57 528.56 307.11 526.98 299.52 524.07 290.95 520.9 282.06 516.25 272.94 510.22 263.12 503.84 253.52 496.16 244.64 487.39 236.26 478.4 229.56 468.47 225.17 457.82 222.48 447.1 222.57 435.77 225.54 423.97 229.85 412.17 235.92 400.47 242.97 388.98 249.51 377.45 255.98 366.06 262.01 354.87 266.56 343.56 270.63 332.36 274.38 321.35 277.06 310.18 280.05 299.19 283.64 288.52 287 277.81 291.47 267.54 297.09 257.98 302.98 248.67 310.12 240.35 318.31 233.33 326.78 226.99 336.13 222.26 346.11 219.43 356.19 217.59 366.71 217.77 377.49 220.09" stroke-dasharray="10 10" transform="rotate(44.44, 400, 400)" opacity="0.18"></path><path d="M378.83 230.77C388.92 233.79 399.08 238.39 409.27 244.26 419.6 250.38 430.19 257.41 441.1 265.05 452.43 272.47 464.35 280.29 476.84 288.34 489.79 295.95 503.21 303.76 516.68 311.71 529.9 319.23 542.29 327.01 552.99 335.07 561.9 342.82 567.9 350.99 570.3 359.62 570.01 368.09 566.09 377.14 558.97 386.79 550.88 396.38 541.66 406.64 532.64 417.55 526.28 428.46 522.36 439.53 521.07 450.61 523.05 461.66 526.63 472.66 530.81 483.39 535.92 493.98 539.77 504.13 541.65 513.57 542.36 522.64 540.38 530.74 535.84 537.56 529.8 543.74 521.64 548.41 511.92 551.35 501.38 553.53 489.95 553.95 478.14 552.61 466.12 550.8 454.09 547.58 442.34 543.17 430.62 539.08 419.25 534.45 408.4 529.62 397.56 526.03 387.67 522.86 378.71 520.21 369.63 518.95 361.33 518 353.69 517.19 345.74 517.3 338.19 517.05 330.9 516.22 322.99 515.67 315.03 514.13 306.92 511.49 298.02 508.71 288.9 504.66 279.73 499.37 270.14 493.84 260.95 487.11 252.63 479.33 244.94 471.37 238.93 462.47 235.11 452.8 232.87 443.06 233.19 432.65 236.13 421.67 240.29 410.69 246.12 399.69 252.93 388.79 259.38 377.86 265.9 366.98 272.12 356.24 277.07 345.42 281.58 334.68 285.77 324.13 288.87 313.49 292.09 303.05 295.68 292.97 298.85 282.92 302.86 273.35 307.79 264.51 312.78 255.97 318.86 248.39 325.93 242.07 333.16 236.39 341.31 232.21 350.2 229.78 359.15 228.23 368.73 228.52 378.83 230.77" stroke-dasharray="0 10" transform="rotate(48.48, 400, 400)" opacity="0.19"></path><path d="M382.97 241.44C392.44 244.28 402.21 248.58 412.22 254.05 422.35 259.77 432.88 266.37 443.8 273.58 454.99 280.67 466.7 288.19 478.76 295.97 491 303.42 503.38 311.09 515.42 318.92 526.93 326.39 537.34 334.09 545.91 342.02 552.78 349.69 556.96 357.71 557.97 366.09 556.81 374.32 552.64 383.03 545.88 392.21 538.5 401.34 530.2 411.01 522.05 421.2 516.15 431.38 512.22 441.61 510.43 451.75 511.46 461.85 513.92 471.8 517.07 481.37 521.32 490.82 524.78 499.75 526.84 507.92 528.23 515.76 527.47 522.64 524.55 528.31 520.46 533.45 514.39 537.21 506.74 539.42 498.31 541.05 488.79 541.16 478.65 539.75 468.21 538.02 457.5 535.08 446.82 531.12 436.11 527.48 425.56 523.34 415.32 518.95 405.09 515.61 395.61 512.55 386.86 509.86 378.01 508.36 369.73 507.08 361.93 505.89 353.82 505.53 345.96 504.89 338.24 503.78 329.99 503 321.65 501.42 313.2 498.92 304.17 496.4 295.04 492.79 286.03 488.1 276.86 483.25 268.23 477.33 260.58 470.41 253.65 463.36 248.35 455.4 245.11 446.65 243.3 437.85 243.82 428.33 246.71 418.19 250.71 408.05 256.27 397.79 262.78 387.54 269.08 377.28 275.57 367 281.89 356.81 287.16 346.59 292.08 336.43 296.69 326.45 300.27 316.45 303.85 306.67 307.62 297.27 310.86 287.96 314.69 279.16 319.24 271.09 323.67 263.35 329.01 256.53 335.26 250.9 341.54 245.87 348.73 242.22 356.72 240.17 364.73 238.89 373.5 239.28 382.97 241.44" stroke-dasharray="2 2" transform="rotate(52.52, 400, 400)" opacity="0.81"></path><path d="M389.38 252.11C398.26 254.77 407.57 258.75 417.23 263.8 426.98 269.11 437.16 275.25 447.71 282.01 458.39 288.7 469.43 295.85 480.6 303.28 491.72 310.48 502.67 317.92 513.02 325.53 522.67 332.86 531.07 340.41 537.62 348.15 542.66 355.67 545.27 363.48 545.17 371.56 543.4 379.52 539.16 387.85 532.84 396.54 526.18 405.19 518.78 414.25 511.46 423.69 506.03 433.13 502.14 442.5 499.96 451.67 500.18 460.82 501.62 469.7 503.77 478.15 507.07 486.48 509.95 494.23 511.87 501.22 513.55 510.81 507.09 524.07 499.11 527.21 492.61 528.41 484.96 528.29 476.49 526.89 467.72 525.29 458.44 522.65 448.95 519.13 439.4 515.92 429.76 512.24 420.21 508.27 410.66 505.19 401.61 502.27 393.07 499.59 384.44 497.9 376.18 496.34 368.23 494.83 360.03 494.06 351.94 493.06 343.91 491.67 335.47 490.64 326.96 488.96 318.4 486.52 309.47 484.13 300.58 480.83 291.95 476.61 283.37 472.3 275.44 467.04 268.56 460.87 262.42 454.61 257.85 447.5 255.18 439.61 253.78 431.67 254.48 423.02 257.3 413.72 261.11 404.42 266.36 394.93 272.54 385.4 278.62 375.87 284.98 366.28 291.31 356.75 296.8 347.21 302.05 337.73 307.03 328.44 311.09 319.18 315.09 310.15 319.16 301.51 322.65 293.02 326.54 285.04 330.95 277.77 335.13 270.84 340.05 264.79 345.75 259.85 351.38 255.44 357.86 252.3 365.14 250.61 372.41 249.58 380.49 250.05 389.38 252.11" stroke-dasharray="2 7" transform="rotate(56.56, 400, 400)" opacity="0.72"></path><path d="M397.19 262.79C405.49 265.25 414.25 268.9 423.36 273.54 432.52 278.41 442.07 284.07 451.87 290.33 461.7 296.58 471.7 303.29 481.62 310.31 491.32 317.16 500.63 324.29 509.15 331.59 516.93 338.68 523.4 345.98 528.13 353.44 531.57 360.73 532.92 368.25 531.99 375.98 529.82 383.61 525.67 391.52 519.87 399.67 513.93 407.8 507.39 416.22 500.87 424.88 495.91 433.55 492.12 442.05 489.67 450.27 489.19 458.46 489.74 466.31 490.95 473.68 494.37 484.27 498.79 501.58 498 507.76 495.02 512.38 481.37 515.51 471.47 514.05 464.3 512.61 456.46 510.29 448.19 507.2 439.85 504.4 431.21 501.16 422.41 497.6 413.61 494.78 405.06 492.01 396.8 489.37 388.47 487.55 380.33 485.79 372.34 484.03 364.17 482.91 356.03 481.58 347.9 479.94 339.5 478.65 331.06 476.82 322.66 474.39 314.08 472.06 305.65 468.97 297.62 465.1 289.78 461.2 282.66 456.48 276.61 450.95 271.3 445.37 267.44 439 265.33 431.91 264.31 424.78 265.16 416.96 267.89 408.5 271.49 400.04 276.39 391.36 282.19 382.6 287.99 373.86 294.15 365.03 300.38 356.25 305.98 347.48 311.44 338.78 316.71 330.26 321.2 321.81 325.61 313.61 330.02 305.81 333.86 298.17 337.96 291.04 342.43 284.6 346.59 278.48 351.33 273.19 356.71 268.91 361.97 265.12 367.96 262.46 374.7 261.09 381.4 260.3 388.9 260.83 397.19 262.79" stroke-dasharray="0 1" transform="rotate(60.599999999999994, 400, 400)" opacity="0.85"></path><path d="M405.38 273.46C413.08 275.73 421.16 279.05 429.53 283.26 437.92 287.68 446.58 292.85 455.35 298.57 464.06 304.33 472.76 310.54 481.19 317.07 489.33 323.51 496.91 330.22 503.59 337.11 509.59 343.87 514.33 350.82 517.49 357.9 519.62 364.87 519.99 372.02 518.49 379.32 516.13 386.54 512.2 393.97 506.97 401.55 501.75 409.11 496.03 416.86 490.28 424.73 485.78 432.61 482.15 440.24 479.53 447.52 478.51 454.78 478.3 461.64 478.66 467.99 482.35 484.34 481.67 500.35 477.44 502.13 471.58 502.63 454.73 499.01 444.39 495.33 437.24 492.92 429.61 490.09 421.63 486.93 413.64 484.37 405.68 481.77 397.82 479.21 389.92 477.32 382.04 475.42 374.21 473.48 366.28 472.07 358.3 470.48 350.35 468.62 342.25 467.09 334.15 465.12 326.17 462.65 318.18 460.33 310.43 457.37 303.17 453.77 296.19 450.19 289.97 445.91 284.79 440.93 280.31 435.92 277.16 430.22 275.56 423.85 274.9 417.47 275.86 410.44 278.48 402.81 281.84 395.19 286.38 387.34 291.76 379.4 297.21 371.48 303.07 363.48 309.1 355.52 314.68 347.59 320.22 339.73 325.65 332.07 330.47 324.49 335.21 317.17 339.94 310.25 344.15 303.49 348.52 297.23 353.14 291.63 357.44 286.31 362.17 281.75 367.39 278.12 372.46 274.9 378.13 272.69 384.45 271.63 390.72 271.04 397.69 271.63 405.38 273.46" stroke-dasharray="7 10" transform="rotate(64.64, 400, 400)" opacity="0.32"></path><path d="M412.86 284.13C419.9 286.2 427.22 289.19 434.69 292.96 442.15 296.93 449.74 301.57 457.27 306.74 464.71 311.97 471.97 317.63 478.82 323.61 485.37 329.55 491.27 335.76 496.26 342.16 500.67 348.48 503.92 354.98 505.8 361.6 506.92 368.14 506.59 374.83 504.77 381.61 502.39 388.35 498.78 395.22 494.17 402.17 489.65 409.11 484.71 416.15 479.69 423.23 475.66 430.3 472.24 437.06 469.54 443.44 467.69 452.77 467.77 468.88 468.49 475.37 464.2 487.13 446.46 486.64 437.78 483.51 431.73 481.48 425.1 479.03 417.97 476.25 410.84 473.95 403.57 471.55 396.26 469.11 388.93 467.21 381.51 465.22 374.08 463.17 366.6 461.56 359.06 459.76 351.55 457.73 344.01 456 336.52 453.9 329.22 451.41 322.01 449.06 315.12 446.21 308.76 442.82 302.74 439.48 297.47 435.56 293.17 431.05 288.26 423.99 286.06 406.91 289.07 396.98 292.18 390.17 296.33 383.17 301.25 376.09 306.28 369.02 311.77 361.88 317.48 354.8 322.9 347.76 328.39 340.8 333.84 334.04 338.83 327.37 343.79 320.96 348.73 314.94 353.25 309.08 357.87 303.68 362.63 298.89 367.12 294.35 371.91 290.51 377.04 287.48 382.04 284.8 387.49 283.01 393.44 282.22 399.34 281.81 405.81 282.43 412.86 284.13" stroke-dasharray="3 1" transform="rotate(68.68, 400, 400)" opacity="0.68"></path><path d="M418.62 294.81C431.31 298.77 444.43 305.78 456.98 314.86 469.1 324.22 479.67 335.13 487.17 346.8 492.87 358.3 494.3 370.52 490.92 382.93 486.18 395.24 478.35 407.92 469.1 420.45 462.9 432.97 458.44 444.09 455.74 453.3 456.09 465.67 451.3 477.23 442.09 475.91 434.63 474.31 424.42 470.74 411.92 465.58 399.42 461.91 386 457.65 372.4 453.11 358.8 449.97 345.04 445.91 332.1 440.75 319.76 436.15 309.17 429.78 301.79 421.6 296.56 413.46 295.62 403.29 299.66 391.3 305.7 379.31 314.89 366.71 325.55 354.32 335.56 342.1 345.97 330.34 356.26 319.96 365.31 310.15 374.83 302.2 385.03 297.01 394.75 292.92 405.93 291.99 418.62 294.81" stroke-dasharray="2 1" transform="rotate(72.72, 400, 400)" opacity="0.13"></path><path d="M421.91 305.48C433.09 308.95 444.08 315.05 454.07 322.95 463.65 331.13 471.47 340.76 476.47 351.1 480.2 361.39 480.45 372.35 477 383.41 472.85 394.43 466.31 405.66 458.51 416.56 453 427.45 448.48 436.93 445.13 444.62 443.6 454.94 437.58 464.43 429.73 463.39 423.58 462.19 415.03 459.29 404.29 454.91 393.55 451.65 381.8 447.67 369.82 443.29 357.97 439.96 346.1 435.79 335.15 430.73 324.91 426.15 316.38 420.17 310.71 412.78 306.79 405.46 306.46 396.51 310.25 386.1 315.63 375.69 323.77 364.87 333.34 354.32 342.64 343.92 352.56 334.03 362.51 325.42 371.62 317.29 381.1 310.81 390.9 306.71 400.35 303.47 410.72 302.9 421.91 305.48" stroke-dasharray="3 1" transform="rotate(76.76, 400, 400)" opacity="0.72"></path><path d="M422.28 316.15C431.88 319.14 440.78 324.31 448.42 331.02 455.75 337.99 461.3 346.24 464.41 355.15 466.72 364.09 466.31 373.62 463.11 383.21 459.66 392.8 454.36 402.49 447.92 411.76 443.14 421.04 438.77 428.97 435.08 435.31 432.11 443.84 424.58 451.71 417.55 451.01 412.3 450.16 405.11 447.87 396.09 444.23 387.06 441.41 377.16 437.79 367.11 433.69 357.24 430.36 347.49 426.25 338.72 421.41 330.61 416.96 324.07 411.42 319.98 404.82 317.21 398.3 317.36 390.52 320.84 381.66 325.53 372.8 332.55 363.72 340.9 354.98 349.22 346.37 358.29 338.3 367.51 331.38 376.25 324.83 385.28 319.71 394.41 316.6 403.31 314.11 412.68 313.84 422.28 316.15" stroke-dasharray="8 9" transform="rotate(80.80000000000001, 400, 400)" opacity="0.16"></path><path d="M419.69 326.83C427.64 329.32 434.61 333.57 440.25 339.09 445.69 344.83 449.49 351.66 451.3 359.06 452.7 366.53 452.03 374.51 449.33 382.54 446.62 390.58 442.48 398.66 437.33 406.33 433.3 413.99 429.29 420.48 425.55 425.62 421.67 432.56 412.9 439.13 406.43 438.76 401.81 438.24 395.78 436.5 388.4 433.56 381.02 431.18 373.04 428.01 365.07 424.31 357.27 421.14 349.72 417.27 343.12 412.81 337.05 408.63 332.34 403.62 329.62 397.86 327.84 392.16 328.34 385.56 331.43 378.22 335.39 370.87 341.25 363.49 348.26 356.51 355.39 349.61 363.29 343.25 371.41 337.9 379.33 332.82 387.49 328.94 395.6 326.68 403.6 324.86 411.74 324.81 419.69 326.83" stroke-dasharray="2 6" transform="rotate(84.84, 400, 400)" opacity="0.97"></path><path d="M414.48 337.5C427.06 341.76 435.26 351.29 437.56 362.93 439.19 374.85 435.19 388.38 426.74 400.55 421.08 412.71 414.48 421.01 407.59 424.58 402.29 428.24 393.89 427.75 382.26 422.89 370.62 419.43 358.17 412.96 348.62 404.94 340.53 397.67 337.44 387.68 342.02 375.97 348.87 364.25 361.02 353.08 374.44 345.05 387.69 337.7 401.91 334.47 414.48 337.5" stroke-dasharray="3 7" transform="rotate(88.88, 400, 400)" opacity="0.59"></path><path d="M407.35 348.17C416.62 351.32 422.24 358.3 423.59 366.87 424.8 375.65 422.15 385.69 416.15 394.73 411.69 403.77 405.83 410 399.58 412.83 394.27 415.77 387.12 415.69 378.47 412.21 369.83 409.52 361.39 404.27 355.42 397.78 350.29 391.72 348.81 383.79 352.61 375.02 357.74 366.25 366.77 358.29 376.89 352.84 387.12 347.77 398.08 345.73 407.35 348.17" stroke-dasharray="7 11" transform="rotate(92.92, 400, 400)" opacity="0.47"></path><path d="M399.24 358.85C411.37 363.26 413.62 377.25 405.56 389.21 400.17 401.16 389.05 406.25 377.55 401.54 366.04 398.19 358.35 387.14 363.2 375.44 370.45 363.73 387.1 355.71 399.24 358.85" stroke-dasharray="3 3" transform="rotate(96.96, 400, 400)" opacity="0.53"></path></g></svg>